<?xml version="1.0" encoding="utf-8"?>
<!-- Generator: Adobe Illustrator 19.0.1, SVG Export Plug-In . SVG Version: 6.00 Build 0)  -->
<svg version="1.1" baseProfile="tiny" id="Layer_1" xmlns="http://www.w3.org/2000/svg" xmlns:xlink="http://www.w3.org/1999/xlink"
	 x="0px" y="0px" viewBox="0 0 60 42.8" xml:space="preserve">
<path fill="#FFFFFF" d="M11.9,0C9.6,0.2,7.4,0.3,5.5,0.5C3.6,0.6,1.8,0.7,0,0.7v1.9h3.2v37.5H0V42h16v-1.8h-4.1V0z"/>
<path fill="#FFFFFF" d="M50.3,37c0,1.5-0.3,2.5-0.8,3.1C49,40.7,48.1,41,46.8,41c-2,0-3.5-0.8-4.8-2.5c-1.2-1.6-1.8-3.8-1.8-6.5
	v-4.8c0-2.7,0.6-4.9,1.9-6.5c1.3-1.6,3-2.4,5.1-2.4c1.1,0,1.9,0.3,2.4,0.9c0.5,0.6,0.7,1.7,0.7,3.2V37z M56.7,20.3
	c-2.2-2.5-5-3.7-8.4-3.7c-1.8,0-3.3,0.4-4.6,1.2c-1.4,0.8-2.5,2-3.4,3.6V0C38,0.2,36,0.3,34,0.5c-2,0.1-3.8,0.2-6.1,0.3v1.9h3.7
	v37.5L19.3,24.5l6.5-5.4h4.9v-1.8H17.4v1.8h5.8l-11.1,9.3l9,11.8h-3.3V42h10.2h6h6.2v-3.9c0.9,1.6,2,2.8,3.4,3.6
	c1.3,0.8,2.9,1.2,4.7,1.2c3.3,0,6.1-1.3,8.3-3.8c2.2-2.5,3.4-5.6,3.4-9.3C60,25.9,58.9,22.8,56.7,20.3"/>
</svg>
