<?xml version="1.0" encoding="utf-8"?>
<!-- Generator: Adobe Illustrator 19.0.1, SVG Export Plug-In . SVG Version: 6.00 Build 0)  -->
<svg version="1.1" baseProfile="tiny" id="Layer_1" xmlns="http://www.w3.org/2000/svg" xmlns:xlink="http://www.w3.org/1999/xlink"
	 x="0px" y="0px" viewBox="0 0 802.2 266.8" xml:space="preserve">
<g id="XMLID_79_">
	<g id="XMLID_5_">
		<path id="XMLID_74_" fill="#FFFFFF" d="M229.2,68.5l-38.7,86.6c-2.4-4.9-4.6-9.7-6.5-14.3c-1.9-4.7-3.9-9.3-5.8-13.9
			c-1.9-4.6-3.9-9.3-5.9-14c-2-4.7-4.2-9.5-6.6-14.3c-4.4,9.8-8.5,19.2-12.4,28.3c-3.9,9.1-8,18.5-12.2,28.3l-36.8-86.6h18.5
			c1.5,3.5,2.8,6.7,4,9.6l0.2,0.4l16,36.8c0.5-1.4,1.3-3.2,2.1-5.4c1.2-2.9,2.8-6.7,4.8-11.3c2-4.7,4.8-10.8,8.1-18.2l-5.6-11.9h16
			c3.8,8.3,7,15.5,9.6,21.4c0.4,1,0.8,1.9,1.2,2.9l0.2,0.4l10.3,23.3l4.9-11.2c0.4-1.2,0.9-2.3,1.5-3.6c1.3-3,2.8-6.4,4.6-10.4
			c0.4-0.9,0.8-1.8,1.2-2.7c2.4-5.1,5.3-11.8,8.8-20H229.2z"/>
		<path id="XMLID_6_" fill="#FFFFFF" d="M302.3,140.9c-4,3.6-8.8,6.4-14.4,8.5c-5.6,2-11.4,3.1-17.3,3.1c-6,0-11.7-1.1-17-3.4
			c-5.3-2.2-9.9-5.3-13.9-9.2c-3.9-3.9-7-8.5-9.3-13.7c-2.3-5.2-3.5-10.7-3.5-16.6c0-5.9,1.2-11.4,3.5-16.6
			c2.3-5.2,5.4-9.7,9.3-13.7c3.9-3.9,8.5-7,13.7-9.2c5.2-2.2,10.7-3.4,16.5-3.4c9.2,0,17.3,2.8,24.3,8.4c7,5.6,12,12.9,14.9,22
			c-3.8,1.4-8.3,3.1-13.4,5.1c-5.1,2-10.4,4.1-15.9,6.3c-5.5,2.2-11,4.4-16.5,6.6c-5.5,2.2-10.6,4.3-15.2,6.1c2.2,4,5.2,7.2,9,9.6
			c3.8,2.4,8.2,3.7,13.1,3.7c3.3,0,6.7-0.6,10.1-1.8c3.4-1.2,6.2-2.9,8.4-4.9L302.3,140.9z M286.1,92.7c-1.5-2.8-3.8-4.9-6.9-6.3
			c-3.1-1.3-6.1-2-9-2c-3.5,0-6.7,0.7-9.8,2c-3.1,1.3-5.7,3.1-7.9,5.4c-2.2,2.2-3.9,4.8-5.2,7.7c-1.3,2.9-1.9,5.9-1.9,8.9v0.8
			c3.2-1.3,6.6-2.7,10.3-4.1c3.7-1.5,7.3-3,11-4.5c3.7-1.5,7.2-3,10.5-4.3C280.4,95,283.4,93.8,286.1,92.7z"/>
		<path id="XMLID_9_" fill="#FFFFFF" d="M405.8,109.7c0,6.2-1,11.8-3.1,17c-2.1,5.2-5,9.7-8.8,13.6c-3.8,3.8-8.3,6.8-13.6,8.9
			c-5.3,2.1-11,3.2-17.3,3.2c-6.3,0-11.8-1.2-16.6-3.6c-4.8-2.4-8.1-4.9-9.9-7.6c0,0.5,0,1,0.1,1.4c0.1,0.5,0.1,1,0.1,1.6v6h-18.5V0
			h18.5v78.9c1-1.3,2.3-2.7,3.9-4.1c1.6-1.5,3.6-2.8,5.9-4c2.3-1.2,4.9-2.2,7.8-3.1c2.9-0.8,6.1-1.3,9.5-1.3c6.3,0,12,1,17.1,3
			c5.1,2,9.5,4.9,13.2,8.7c3.7,3.8,6.5,8.3,8.6,13.7C404.8,97,405.8,103,405.8,109.7z M385.8,109.3c0-7.2-2.1-13.1-6.3-17.8
			c-4.2-4.7-10-7-17.4-7c-3.7,0-7.1,0.6-10.2,1.8c-3.1,1.2-5.7,3-8,5.2c-2.2,2.2-4,4.9-5.3,7.9c-1.3,3-1.9,6.3-1.9,9.7
			c0,3.6,0.6,6.9,1.9,10c1.3,3.1,3,5.7,5.3,8c2.2,2.2,4.9,4,8,5.3c3.1,1.3,6.5,1.9,10.2,1.9c3.7,0,7.1-0.6,10-1.9
			c3-1.3,5.4-3.1,7.4-5.4c2-2.3,3.5-5,4.6-8C385.2,116,385.8,112.8,385.8,109.3z"/>
		<path id="XMLID_12_" fill="#FFFFFF" d="M481.8,141.2c-3.5,3.2-7.5,5.7-12.2,7.6c-4.7,1.9-9.7,2.8-14.9,2.8c-5.4,0-10.5-1-15.2-3.1
			c-4.7-2-8.9-4.8-12.4-8.3c-3.5-3.5-6.3-7.5-8.3-12.2c-2-4.7-3-9.7-3-15.1c0-5.4,1-10.5,3.1-15.2c2.1-4.7,4.8-8.9,8.3-12.4
			c3.5-3.5,7.5-6.3,12.2-8.4c4.7-2.1,9.7-3.1,15.1-3.1c8.2,0,15.2,2.4,21.1,7.2c5.8,4.8,10.2,10.9,13,18.4c-4.6,1.8-9.6,3.8-15,6
			c-5.4,2.2-10.9,4.4-16.5,6.7c-5.6,2.3-11.2,4.6-16.7,6.8c-5.5,2.2-10.7,4.3-15.6,6.3c2.4,5.9,6.3,10.7,11.6,14.3
			c5.3,3.7,11.4,5.5,18.2,5.5c4.4,0,8.5-0.8,12.3-2.3c3.8-1.5,7.2-3.7,10-6.3L481.8,141.2z M480.1,97.6c-2.3-5.1-5.7-9.2-10.1-12.3
			c-4.4-3.1-9.6-4.6-15.5-4.6c-4.5,0-8.7,0.9-12.6,2.6c-3.9,1.7-7.3,4-10.2,6.9c-2.9,2.9-5.2,6.3-6.8,10.2
			c-1.7,3.9-2.5,8.1-2.5,12.4c0,1.4,0.1,2.8,0.3,4c0.2,1.3,0.4,2.6,0.7,3.8c4.4-1.8,9-3.7,13.9-5.7c4.9-2,9.8-4,14.7-6
			c4.9-2,9.8-3.9,14.6-5.9C471.3,101.2,475.9,99.4,480.1,97.6z"/>
		<path id="XMLID_15_" fill="#FFFFFF" d="M495.7,113c0-5.4,1-10.5,3-15.2c2-4.7,4.7-8.9,8.2-12.4c3.5-3.5,7.5-6.3,12.2-8.3
			c4.7-2,9.7-3,15.1-3c4.1,0,7.9,0.6,11.5,1.7c3.5,1.2,6.7,2.7,9.5,4.6c2.8,1.9,5.3,4.1,7.3,6.6c2,2.5,3.6,5.1,4.6,7.8
			c0-3.2,0.1-6.4,0.3-9.6c0.2-3.2,0.4-6.3,0.5-9.4h6v74.5c0,4.9-0.7,9.5-2.1,13.8c-1.4,4.3-3.7,8.1-6.7,11.4
			c-3.1,3.3-7.1,5.9-12,7.8c-4.9,1.9-11,2.9-18.2,2.9c-5.9,0-11.5-1.1-16.8-3.3c-5.3-2.2-11.1-6.2-17.2-12.1l4.2-4.6
			c2.8,2.8,5.5,5.1,8.2,6.8c2.6,1.7,5.2,3.1,7.6,4c2.4,1,4.8,1.6,7,2c2.2,0.4,4.5,0.6,6.8,0.6c6,0,11.1-0.7,15.2-2.2
			c4.1-1.5,7.4-3.6,9.9-6.3c2.5-2.7,4.3-5.9,5.5-9.5c1.2-3.7,1.8-7.7,1.9-12.2V141c0-0.3,0-0.9,0.1-1.9c0.1-1,0.1-2.1,0.1-3.3
			c0-1.2,0-2.2,0.1-3.3c0.1-1,0.1-1.7,0.1-1.9c-2.6,5.9-6.7,10.9-12.5,14.9c-5.8,4-12.7,6.1-20.8,6.1c-5.4,0-10.4-1-15.1-3
			c-4.7-2-8.8-4.7-12.2-8.3c-3.5-3.5-6.2-7.6-8.2-12.3C496.7,123.4,495.7,118.3,495.7,113z M502.4,113c0,4.5,0.8,8.7,2.5,12.6
			c1.7,3.9,3.9,7.3,6.8,10.2c2.9,2.9,6.3,5.2,10.3,6.8c4,1.7,8.2,2.5,12.7,2.5c4.5,0,8.7-0.8,12.7-2.5c4-1.7,7.4-3.9,10.3-6.8
			c2.9-2.9,5.2-6.3,6.8-10.2c1.7-3.9,2.5-8.1,2.5-12.6c0-4.5-0.8-8.7-2.5-12.7c-1.7-4-3.9-7.4-6.8-10.3c-2.9-2.9-6.3-5.2-10.3-6.8
			c-4-1.7-8.2-2.5-12.7-2.5c-4.5,0-8.7,0.8-12.7,2.5c-4,1.7-7.4,3.9-10.3,6.8c-2.9,2.9-5.2,6.3-6.8,10.3
			C503.3,104.2,502.4,108.5,502.4,113z"/>
		<path id="XMLID_18_" fill="#FFFFFF" d="M593.4,50.8c0-1.7,0.6-3.1,1.7-4.2c1.2-1.2,2.5-1.7,4-1.7c1.4,0,2.7,0.6,3.8,1.7
			c1.2,1.2,1.7,2.6,1.7,4.2c0,1.7-0.6,3-1.7,4.1c-1.2,1.1-2.4,1.6-3.8,1.6c-1.5,0-2.9-0.5-4-1.6C594,53.9,593.4,52.5,593.4,50.8z
			 M602.3,150.3h-6.5V75.8h6.5V150.3z"/>
		<path id="XMLID_21_" fill="#FFFFFF" d="M624.2,75.8h5.6c0,0.5,0,1.7,0.1,3.7c0.1,1.9,0.1,4,0.1,6.2c0,2.2,0,4.2,0.1,6.1
			c0.1,1.9,0.1,3,0.1,3.4c2.7-6.2,6.9-11.2,12.5-15c5.6-3.8,12.2-5.8,19.6-5.8c7.2,0,12.9,2.1,17,6.2c4.2,4.1,6.4,9.4,6.6,16v53.9
			h-6.7V97.6c-0.3-4.5-1.9-8.3-4.8-11.5c-3-3.2-7.2-4.9-12.9-5.2c-4.2,0-8.2,0.7-11.9,2.1c-3.7,1.4-7,3.3-9.7,5.8
			c-2.8,2.4-5,5.4-6.6,8.9c-1.7,3.5-2.5,7.2-2.5,11.2v41.6h-6.5V75.8z"/>
	</g>
	<g id="XMLID_85_">
		<path id="XMLID_86_" fill="#FFFFFF" d="M81,125.1v25.7c-13.6-7.8-27.1-15.5-40.5-23.3c-13.4-7.7-26.9-15.5-40.5-23.4
			c13.6-7.8,27.1-15.6,40.5-23.4C53.9,73,67.4,65.3,81,57.6v25.5l-36.3,21L81,125.1z"/>
	</g>
	<g id="XMLID_82_">
		<path id="XMLID_83_" fill="#FFFFFF" d="M721.2,150.9v-25.7l36.5-21l-36.5-21V57.6c13.6,7.7,27.1,15.4,40.5,23.2
			c13.4,7.8,26.9,15.6,40.5,23.4c-13.6,7.9-27.1,15.7-40.5,23.4C748.3,135.3,734.8,143.1,721.2,150.9z"/>
	</g>
</g>
<g id="XMLID_2_">
	<path id="XMLID_65_" fill="#FFFFFF" d="M174.9,236.2l0.3-2.7h5.4l1.3-10.6c0.4-3.1,1.1-5.8,2.2-8.2c1.1-2.4,2.5-4.4,4.1-6
		c1.6-1.6,3.5-2.9,5.5-3.7c2.1-0.8,4.2-1.3,6.5-1.4l-0.4,2.7c-1.9,0-3.7,0.4-5.4,1.2c-1.7,0.8-3.2,1.9-4.6,3.3
		c-1.3,1.4-2.5,3.1-3.4,5.1c-0.9,2-1.5,4.3-1.8,6.8l-1.3,10.8h10.4l-0.3,2.7H183l-3.4,28.1h-2.8l3.5-28.1H174.9z"/>
	<path id="XMLID_67_" fill="#FFFFFF" d="M196.8,248.8c0.3-2.2,0.9-4.3,2-6.3c1.1-2,2.5-3.7,4.1-5.2c1.6-1.5,3.5-2.6,5.6-3.5
		c2.1-0.9,4.2-1.3,6.5-1.3c2.1,0,4,0.4,5.8,1.1c1.8,0.7,3.3,1.8,4.6,3.1c1.3,1.3,2.3,2.9,3,4.6c0.7,1.8,1.1,3.7,1.1,5.7
		c0,2.5-0.5,4.8-1.5,6.9c-1,2.2-2.3,4-4,5.6c-1.7,1.6-3.6,2.9-5.9,3.8c-2.2,0.9-4.6,1.4-7,1.4c-2.2,0-4.3-0.4-6.2-1.2
		c-1.9-0.8-3.4-2-4.7-3.4c-1.3-1.4-2.2-3.1-2.8-5.1C196.7,253.2,196.5,251.1,196.8,248.8z M199.6,248.8c-0.3,1.9-0.1,3.6,0.4,5.2
		c0.5,1.6,1.3,3,2.3,4.2s2.3,2.1,3.9,2.8c1.5,0.7,3.3,1,5.1,1c2,0,4-0.4,5.8-1.2c1.8-0.8,3.5-1.8,4.8-3.2c1.4-1.3,2.5-2.9,3.3-4.7
		c0.8-1.8,1.2-3.7,1.2-5.7c0-1.7-0.3-3.2-0.9-4.7c-0.6-1.5-1.4-2.8-2.5-3.8c-1.1-1.1-2.3-1.9-3.8-2.6c-1.5-0.6-3.1-1-4.8-1
		c-1.9,0-3.7,0.3-5.4,1c-1.7,0.7-3.2,1.7-4.6,2.9c-1.4,1.2-2.5,2.7-3.4,4.3C200.3,245.1,199.8,246.9,199.6,248.8z"/>
	<path id="XMLID_70_" fill="#FFFFFF" d="M257,236c-1.7,0.1-3.4,0.3-5,0.9c-1.6,0.5-3,1.3-4.3,2.3c-1.3,1-2.3,2.2-3.2,3.5
		c-0.9,1.4-1.4,2.9-1.5,4.5l-2.2,17.1h-2.7l3.8-31h2.2c0,0.2,0,0.7-0.1,1.5c-0.1,0.8-0.2,1.7-0.2,2.6c-0.1,0.9-0.2,1.7-0.2,2.5
		c-0.1,0.8-0.1,1.2-0.1,1.4c1.5-2.7,3.6-4.8,6.3-6.3c2.6-1.5,5.3-2.3,8-2.4L257,236z"/>
	<path id="XMLID_73_" fill="#FFFFFF" d="M294.4,207.7c1.1,3.6,2.2,7.6,3.3,11.8c1.1,4.3,2.3,8.6,3.5,13.1c1.2,4.5,2.4,8.8,3.5,13.1
		c1.1,4.3,2.3,8.2,3.3,11.8c0.1,0.3,0.2,0.6,0.3,1c0.1,0.4,0.1,0.8,0.2,1.2c0.2-0.4,0.4-0.8,0.6-1.2c0.2-0.4,0.3-0.8,0.4-1
		c2-3.6,4.1-7.5,6.3-11.8c2.2-4.3,4.5-8.7,6.7-13.1c2.3-4.5,4.5-8.8,6.7-13.1c2.2-4.3,4.3-8.2,6.3-11.8h3.4c-1.4,2.6-3,5.5-4.7,8.7
		c-1.7,3.2-3.5,6.6-5.3,10.1c-1.8,3.5-3.7,7.1-5.6,10.8c-1.9,3.7-3.8,7.2-5.6,10.8c-1.8,3.5-3.6,6.9-5.3,10.1
		c-1.7,3.2-3.3,6.1-4.7,8.7c-0.8-2.6-1.6-5.5-2.5-8.7c-0.9-3.2-1.8-6.6-2.8-10.1c-1-3.5-2-7.1-3-10.8c-1-3.7-2-7.2-3-10.8
		c-1-3.5-1.9-6.9-2.8-10.1c-0.9-3.2-1.8-6.1-2.6-8.7H294.4z"/>
	<path id="XMLID_76_" fill="#FFFFFF" d="M341.9,264.3h-2.7l3.8-31h2.7L341.9,264.3z M343.3,222.8c0-0.7,0.3-1.4,0.9-1.9
		c0.6-0.5,1.2-0.8,1.9-0.8c0.6,0,1.1,0.2,1.5,0.6c0.4,0.4,0.6,1,0.6,1.6c0,0.7-0.3,1.4-0.8,1.9c-0.6,0.5-1.2,0.8-1.9,0.8
		c-0.6,0-1.1-0.2-1.5-0.6C343.5,223.9,343.3,223.3,343.3,222.8z"/>
	<path id="XMLID_81_" fill="#FFFFFF" d="M373.5,236.4c-0.3,0.3-0.6,0.7-1,1.1c-0.4,0.4-0.7,0.7-0.8,0.8c-0.5-0.8-1.4-1.5-2.7-2
		c-1.3-0.5-2.5-0.8-3.7-0.8c-0.6,0-1.4,0.1-2.2,0.3c-0.8,0.2-1.5,0.5-2.2,1c-0.7,0.5-1.2,1.1-1.7,1.8c-0.5,0.7-0.7,1.7-0.7,2.7
		c0,1.2,0.3,2.1,1,2.8c0.7,0.7,1.5,1.3,2.6,1.9c1,0.5,2.1,1,3.3,1.4c1.2,0.4,2.3,0.9,3.3,1.5c1,0.6,1.9,1.3,2.6,2.3
		c0.7,0.9,1,2.1,1,3.6c0,1.3-0.3,2.5-0.8,3.8c-0.5,1.2-1.2,2.3-2.2,3.2c-1,0.9-2.1,1.6-3.5,2.2c-1.4,0.6-2.9,0.8-4.6,0.8
		c-1.7,0-3.3-0.3-5.1-0.9c-1.7-0.6-3.1-1.6-4-3c0.3-0.3,0.7-0.7,1.2-1.2c0.5-0.5,0.7-0.7,0.8-0.8c0.2,0.4,0.6,0.7,1.2,1.1
		c0.6,0.4,1.2,0.7,1.9,1c0.7,0.3,1.5,0.5,2.2,0.7c0.8,0.2,1.5,0.3,2.2,0.3c0.7,0,1.5-0.1,2.4-0.4c0.9-0.2,1.8-0.6,2.6-1.2
		c0.8-0.5,1.5-1.2,2-2.1c0.6-0.9,0.8-1.9,0.8-3.1c0-1.2-0.3-2.2-1-3c-0.7-0.7-1.5-1.4-2.6-1.9c-1-0.5-2.1-1-3.3-1.4
		c-1.2-0.4-2.3-0.9-3.3-1.5c-1-0.6-1.9-1.3-2.6-2.2c-0.7-0.9-1-2.1-1-3.6c0-1.5,0.3-2.9,0.9-4c0.6-1.1,1.4-2.1,2.3-2.8
		c1-0.7,2-1.3,3.2-1.6c1.1-0.3,2.3-0.5,3.4-0.5c1.3,0,2.7,0.3,4.2,0.8S372.6,235.1,373.5,236.4z"/>
	<path id="XMLID_143_" fill="#FFFFFF" d="M407,264.5h-2.2l0.7-8.3c-1.4,2.6-3.4,4.7-5.9,6.3c-2.6,1.6-5.4,2.4-8.5,2.4
		c-3,0-5.3-0.9-6.8-2.6c-1.5-1.7-2.2-4-1.9-6.7l2.7-22.3h2.8l-2.7,21.8c-0.1,1.9,0.4,3.5,1.4,4.8c1.1,1.3,2.8,2.1,5.1,2.2
		c1.8,0,3.4-0.3,5-0.9c1.6-0.6,3-1.4,4.3-2.4c1.3-1,2.3-2.2,3.2-3.6c0.9-1.4,1.4-3,1.6-4.7l2.2-17.3h2.7L407,264.5z"/>
	<path id="XMLID_145_" fill="#FFFFFF" d="M419.5,250.5c0-2.5,0.5-4.8,1.5-6.9c1-2.2,2.3-4.1,4-5.7c1.7-1.6,3.6-2.9,5.8-3.9
		c2.2-1,4.5-1.4,6.9-1.4c1.7,0,3.2,0.2,4.6,0.7c1.4,0.5,2.6,1.1,3.7,1.9c1.1,0.8,2,1.7,2.7,2.8c0.7,1,1.3,2.1,1.6,3.3
		c0.2-1.3,0.4-2.7,0.6-4c0.2-1.3,0.4-2.6,0.7-3.9h2.5l-3.8,31h-2.7l0.5-3.8c0.1-0.7,0.2-1.4,0.3-2c0.1-0.7,0.1-1.3,0.2-2
		c-1.2,2.3-3.1,4.3-5.7,6c-2.6,1.7-5.6,2.5-8.9,2.5c-2.1,0-4-0.4-5.8-1.1c-1.8-0.7-3.3-1.8-4.5-3c-1.3-1.3-2.2-2.8-2.9-4.5
		C419.9,254.4,419.5,252.5,419.5,250.5z M422.3,250.1c0,1.7,0.3,3.3,0.9,4.7c0.6,1.4,1.4,2.7,2.4,3.8c1,1.1,2.3,1.9,3.8,2.6
		c1.5,0.6,3.1,0.9,4.8,0.9c2,0,4-0.4,5.8-1.2c1.8-0.8,3.5-1.8,4.8-3.2c1.4-1.4,2.5-2.9,3.3-4.7c0.8-1.8,1.2-3.7,1.2-5.7
		c0-1.7-0.3-3.3-0.9-4.8c-0.6-1.5-1.4-2.7-2.5-3.8c-1.1-1.1-2.3-1.9-3.8-2.6c-1.4-0.6-3-0.9-4.8-0.9c-2,0-4,0.4-5.8,1.2
		c-1.8,0.8-3.5,1.8-4.8,3.2c-1.4,1.4-2.5,2.9-3.3,4.7C422.7,246.2,422.3,248.1,422.3,250.1z"/>
	<path id="XMLID_148_" fill="#FFFFFF" d="M466.3,264.3h-2.8l7.4-60.6h2.8L466.3,264.3z"/>
	<path id="XMLID_150_" fill="#FFFFFF" d="M479.2,236.2l0.3-2.7h5.4l1.3-10.6c0.4-3.1,1.1-5.8,2.2-8.2c1.1-2.4,2.5-4.4,4.1-6
		c1.6-1.6,3.5-2.9,5.5-3.7c2.1-0.8,4.2-1.3,6.5-1.4l-0.4,2.7c-1.9,0-3.7,0.4-5.4,1.2c-1.7,0.8-3.2,1.9-4.6,3.3
		c-1.3,1.4-2.5,3.1-3.4,5.1c-0.9,2-1.5,4.3-1.8,6.8l-1.3,10.8h10.4l-0.3,2.7h-10.5l-3.4,28.1H481l3.5-28.1H479.2z"/>
	<path id="XMLID_152_" fill="#FFFFFF" d="M501.1,248.8c0.3-2.2,0.9-4.3,2-6.3c1.1-2,2.5-3.7,4.1-5.2c1.6-1.5,3.5-2.6,5.6-3.5
		c2.1-0.9,4.2-1.3,6.5-1.3c2.1,0,4,0.4,5.8,1.1s3.3,1.8,4.6,3.1s2.3,2.9,3,4.6s1.1,3.7,1.1,5.7c0,2.5-0.5,4.8-1.5,6.9
		c-1,2.2-2.3,4-4,5.6c-1.7,1.6-3.6,2.9-5.9,3.8c-2.2,0.9-4.6,1.4-7,1.4c-2.2,0-4.3-0.4-6.2-1.2c-1.9-0.8-3.4-2-4.7-3.4
		c-1.3-1.4-2.2-3.1-2.8-5.1C501,253.2,500.8,251.1,501.1,248.8z M503.9,248.8c-0.3,1.9-0.1,3.6,0.4,5.2c0.5,1.6,1.3,3,2.3,4.2
		s2.3,2.1,3.9,2.8c1.5,0.7,3.3,1,5.1,1c2,0,4-0.4,5.8-1.2c1.8-0.8,3.5-1.8,4.8-3.2c1.4-1.3,2.5-2.9,3.3-4.7c0.8-1.8,1.2-3.7,1.2-5.7
		c0-1.7-0.3-3.2-0.9-4.7c-0.6-1.5-1.4-2.8-2.5-3.8c-1.1-1.1-2.3-1.9-3.8-2.6c-1.5-0.6-3.1-1-4.8-1c-1.9,0-3.7,0.3-5.4,1
		c-1.7,0.7-3.2,1.7-4.6,2.9c-1.4,1.2-2.5,2.7-3.4,4.3S504.1,246.9,503.9,248.8z"/>
	<path id="XMLID_155_" fill="#FFFFFF" d="M561.3,236c-1.7,0.1-3.4,0.3-5,0.9c-1.6,0.5-3,1.3-4.3,2.3c-1.3,1-2.3,2.2-3.2,3.5
		c-0.9,1.4-1.4,2.9-1.5,4.5l-2.2,17.1h-2.7l3.8-31h2.2c0,0.2,0,0.7-0.1,1.5c-0.1,0.8-0.2,1.7-0.2,2.6c-0.1,0.9-0.2,1.7-0.2,2.5
		c-0.1,0.8-0.1,1.2-0.1,1.4c1.5-2.7,3.6-4.8,6.3-6.3c2.6-1.5,5.3-2.3,8-2.4L561.3,236z"/>
	<path id="XMLID_157_" fill="#FFFFFF" d="M588.1,259.2c0.3,0.3,0.5,0.7,0.8,1c0.2,0.3,0.5,0.7,0.8,1.1c-1.5,1.1-3.2,1.9-5,2.6
		c-1.8,0.6-3.7,1-5.6,1c-2.1,0-4-0.4-5.8-1.1c-1.8-0.7-3.3-1.8-4.5-3.1c-1.3-1.3-2.2-2.8-3-4.6c-0.7-1.8-1.1-3.7-1.1-5.7
		c0-2.4,0.5-4.7,1.5-6.8c1-2.2,2.3-4.1,4-5.7c1.7-1.6,3.6-2.9,5.8-3.8c2.2-0.9,4.5-1.4,6.9-1.4c2,0,3.9,0.3,5.5,1
		c1.7,0.6,3.1,1.5,4.4,2.6c-0.3,0.4-0.7,0.7-1,1c-0.4,0.3-0.7,0.7-1,1.1c-1.1-0.9-2.3-1.6-3.6-2.2c-1.4-0.5-2.8-0.8-4.4-0.8
		c-2,0-4,0.4-5.8,1.2c-1.8,0.8-3.5,1.8-4.8,3.2c-1.4,1.4-2.5,2.9-3.3,4.7c-0.8,1.8-1.2,3.7-1.2,5.7c0,1.7,0.3,3.3,0.9,4.7
		c0.6,1.4,1.4,2.7,2.4,3.8c1,1.1,2.3,1.9,3.7,2.6c1.4,0.6,3,0.9,4.8,0.9c1.7,0,3.2-0.3,4.7-0.8C585.5,260.9,586.9,260.1,588.1,259.2
		z"/>
	<path id="XMLID_159_" fill="#FFFFFF" d="M623.5,260.5c-1.6,1.3-3.4,2.4-5.4,3.2c-2,0.8-4.2,1.2-6.4,1.2c-2.1,0-4-0.4-5.8-1.1
		c-1.8-0.7-3.3-1.8-4.5-3.1c-1.3-1.3-2.2-2.8-3-4.6c-0.7-1.8-1.1-3.7-1.1-5.7c0-2.4,0.5-4.7,1.5-6.8c1-2.2,2.4-4.1,4-5.7
		c1.7-1.6,3.6-2.9,5.8-3.9c2.2-1,4.5-1.4,6.9-1.4c3.5,0,6.3,1,8.4,3s3.6,4.5,4.4,7.6c-2,0.7-4.2,1.6-6.6,2.5
		c-2.3,0.9-4.7,1.8-7.2,2.8s-4.9,1.9-7.3,2.8c-2.4,0.9-4.7,1.8-6.8,2.6c0.7,2.5,2.1,4.4,4.1,6c2,1.5,4.4,2.3,7.2,2.3
		c1.8,0,3.6-0.3,5.3-1c1.7-0.6,3.2-1.5,4.5-2.6L623.5,260.5z M625,242.4c-0.7-2.1-1.9-3.8-3.6-5.1c-1.7-1.3-3.7-1.9-6.2-1.9
		c-2,0-3.9,0.4-5.7,1.2c-1.8,0.8-3.4,1.8-4.8,3.2c-1.4,1.4-2.5,2.9-3.4,4.7c-0.9,1.8-1.3,3.7-1.3,5.6c0,0.3,0,0.7,0,1
		c0,0.3,0,0.7,0.1,0.9c1.9-0.7,3.9-1.5,6.1-2.4c2.1-0.8,4.3-1.7,6.4-2.5c2.2-0.8,4.3-1.6,6.4-2.4C621.2,243.9,623.1,243.1,625,242.4
		z"/>
</g>
</svg>
